<svg width="409" height="64" viewBox="0 0 409 64" fill="none" xmlns="http://www.w3.org/2000/svg">
<g clip-path="url(#clip0_25_234)">
<path fill-rule="evenodd" clip-rule="evenodd" d="M213.055 0.384743C212.378 0.543947 210.786 0.92869 209.512 1.23383C207.204 1.79104 206.05 2.20232 203.967 3.17081C198.634 5.63847 194.906 9.31343 192.305 12.7761C191.257 14.1692 190.408 15.3764 190.408 15.4693C190.408 15.5622 190.076 16.1592 189.678 16.8093C189.28 17.4461 188.843 18.3217 188.71 18.7595C188.577 19.1841 188.219 20.0995 187.901 20.7894C187.37 21.9436 186.733 24.398 186.083 27.8076C185.937 28.5771 185.818 30.4743 185.818 32.0265C185.831 42.0962 190.58 51.529 198.74 57.6982C201.008 59.4096 207.96 62.4478 207.96 62.4478L213.042 63.7081C213.042 63.7081 369.99 64.1857 370.03 63.9337C370.189 63.0315 371.41 56.995 372.007 54.1824C372.444 52.126 373.081 48.9552 373.426 47.1642C373.771 45.3599 374.129 43.675 374.236 43.4229C374.435 42.9453 375.138 39.5622 376.663 31.8275C377.605 27.0381 377.486 26.0166 375.841 25.1542C374.01 24.1857 370.72 24.9154 369.194 26.6136C368.066 27.874 367.005 30.6335 366.328 34.0696C365.652 37.4925 364.391 43.6219 363.755 46.5539C363.556 47.4958 363.277 48.4511 363.131 48.6633C362.945 48.942 361.658 49.0481 358.435 49.0481C355.211 49.0481 353.99 48.9552 353.99 48.6633C353.99 48.2388 354.428 46.1957 355.675 40.4643C356.126 38.408 356.763 35.2371 357.095 33.4461C357.426 31.6418 357.824 29.8905 357.97 29.5456C358.116 29.2007 358.488 27.5158 358.766 25.8043C359.058 24.0929 359.403 22.408 359.536 22.063C359.668 21.7181 359.867 20.7629 359.973 19.9536L360.173 18.4677L364.537 18.5605L368.902 18.6534L368.836 19.4362C368.796 19.8607 368.677 20.7098 368.557 21.3068L368.345 22.3947L369.619 21.2272C370.322 20.5771 370.547 20.471 371.184 20.0597C373.028 18.8657 374.779 18.2952 376.438 17.99C378.521 17.6186 379.967 17.7247 382.58 18.4677C386.07 19.4627 387.847 23.3101 386.932 27.8474C386.746 28.7894 386.229 31.2438 385.804 33.3134C385.38 35.3698 384.756 38.4478 384.425 40.1459C384.093 41.8441 383.695 43.675 383.522 44.2056C383.35 44.7363 382.939 46.5804 382.594 48.2919C381.838 52.0995 381.028 56.0265 380.166 60.1128C379.808 61.7977 379.516 63.3764 379.516 63.5887C379.516 64.7695 389.307 61.9834 392.61 59.8607C396.219 57.539 397.148 56.8093 399.244 54.7131C402.282 51.6617 403.954 49.3267 405.44 45.9967C406.103 44.5108 406.779 43.0647 406.925 42.7728C407.085 42.4809 407.522 40.8624 407.894 39.1774C408.862 34.8524 408.862 29.4925 407.894 25.0348C407.496 23.2305 407.39 22.8192 406.925 21.4395C405.227 16.4113 402.547 12.8292 399.748 9.95025C394.959 5.02819 390.143 2.30846 383.416 0.742952C381.386 0.26534 374.554 0.212272 303.987 0.13267L226.866 0L226.494 1.1675C226.295 1.81758 225.844 3.74129 225.499 5.466C225.154 7.17745 224.544 10.2023 224.146 12.1791C222.501 20.2322 222.209 21.7048 222.262 21.7711C222.289 21.8109 222.779 21.4395 223.35 20.9486C226.282 18.4146 230.501 17.6318 235.012 18.7993C235.728 18.9851 236.325 19.4096 236.325 19.4096C236.325 19.4096 238.713 21.267 239.536 22.9254C240.743 25.3798 240.212 29.0149 239.735 29.9171C239.576 30.209 239.217 31.7877 238.952 33.4196C238.673 35.0514 238.328 36.8027 238.169 37.3201C238.01 37.8375 237.585 39.7347 237.241 41.539C236.325 46.2355 236.06 47.5357 235.874 48.3317C235.715 49.0216 235.622 49.0348 231.204 49.0348H226.707L226.919 47.0978C227.038 46.0365 227.224 45.0149 227.343 44.8292C227.542 44.5108 228.391 40.4378 229.572 34.0431C229.904 32.2388 230.342 31.7479 230.488 30.2222C230.62 28.6832 230.846 27.3167 230.262 26.2819C229.625 25.1542 228.71 24.6766 227.158 24.6766C222.992 24.6766 220.803 27.1973 219.808 33.1012C219.556 34.5605 219.224 36.1791 219.065 36.6965C218.906 37.2139 218.494 39.0315 218.163 40.7562C217.831 42.4677 217.327 45.0415 217.048 46.4478L216.531 49.0216H211.94C206.74 49.0216 207.005 49.194 207.695 46.209C207.881 45.4395 208.08 44.524 208.146 44.1791C208.73 41.0348 209.512 37.3997 209.658 37.1609C209.831 36.8823 210.163 35.2239 211.662 27.3167C212.02 25.4328 212.405 23.6683 212.511 23.4163C212.697 22.9652 213.44 19.3963 214.726 12.8027C215.085 10.9983 215.456 9.31343 215.562 9.06136C215.735 8.63682 217.035 1.80431 217.313 1.06136C217.592 0.305141 217.526 0.66335 217.526 0.424544C217.526 -0.066335 215.032 -0.092869 213.055 0.384743ZM286.527 8.66335C286.527 9.14096 286.302 10.4411 286.037 11.5556C285.771 12.67 285.307 14.8458 284.988 16.398C284.683 17.937 284.325 19.5556 284.219 19.9934C284.1 20.4179 283.755 22.0365 283.436 23.5887C283.118 25.1277 282.507 28.0464 282.083 30.063C281.658 32.0796 280.955 35.3831 280.517 37.3997C280.093 39.4162 279.138 44.1924 279.138 44.1924L277.838 49.0481L273.34 48.9552C269.519 48.8756 268.856 48.796 268.962 48.398C269.028 48.1459 269.347 46.5274 269.665 44.8027C269.983 43.0912 270.368 41.4063 270.514 41.0614C270.66 40.7164 271.018 39.0978 271.284 37.466C271.562 35.8342 271.92 34.0829 272.08 33.5655C272.239 33.0481 272.663 31.1509 273.022 29.3466C273.738 25.7247 274.375 22.66 275.609 17.0216C276.06 14.9652 276.63 12.2189 276.882 10.932C277.134 9.64511 277.4 8.41128 277.466 8.199C277.559 7.90713 278.766 7.81426 282.07 7.81426H286.541V8.67662L286.527 8.66335ZM299.662 9.4461C299.542 10.3483 299.25 11.6882 299.012 12.4179C298.773 13.1476 298.561 14.0232 298.561 14.3416C298.561 15.8939 298.494 15.9204 293.44 15.9204C288.969 15.9204 288.703 15.8806 288.703 15.3234C288.703 14.4743 289.552 10.0564 289.964 8.83582L290.295 7.81426H299.874L299.662 9.45937V9.4461ZM263.509 18.2023C266.216 19.1045 268.378 20.9619 269.493 23.3499C270.169 24.8093 270.342 25.6584 270.435 28.2454C270.501 30.0099 270.381 32.398 270.156 33.7247L269.758 36.0597L259.595 36.2189L249.433 36.3781L249.353 38.7131C249.3 40.1327 249.075 40.7562 249.658 41.8308C250.507 43.3964 252.444 44.0199 253.731 44.0066C255.748 43.9934 258.76 41.9502 259.304 40.2388C259.476 39.6949 259.821 39.6418 263.629 39.6418C268.245 39.6418 268.153 39.5887 267.343 41.8574C266.879 43.1841 266.574 43.5954 264.531 45.7048C262.687 47.6153 260.697 48.796 258.468 49.3002C257.566 49.5124 256.823 49.791 255.748 49.99C252.537 50.5473 249.566 50.1625 247.403 49.5788C246.461 49.3267 245.068 48.6766 244.312 48.1459C242.879 47.1509 241.619 45.5854 240.902 43.4494C240.478 42.2023 240.478 41.8441 240.398 40.1327C240.292 37.6783 240.398 36.6169 241.101 33.8176C241.566 31.9602 242.043 30.3018 242.163 30.1294C242.282 29.9569 242.587 29.3201 242.813 28.723C243.436 27.1177 245.055 24.6235 246.421 23.1774C248.159 21.3466 251.449 19.2106 253.493 18.5871C254.474 18.2952 255.615 17.9237 256.04 17.791C257.579 17.2736 261.347 17.4726 263.509 18.1891V18.2023ZM318.129 18.7065C319.801 19.1841 321.552 20.4842 322.707 22.1028C323.582 23.3499 323.662 23.6816 323.781 26.5473L323.901 29.6517H314.653L314.534 27.4362C314.428 25.539 314.309 25.141 313.658 24.6368C313.247 24.3184 312.584 24.0398 312.199 24.0398C311.177 24.0398 309.307 25.34 308.352 26.733C305.406 31.0448 304.252 41.8043 306.6 43.0779C308.245 43.9668 310.448 42.9851 311.788 40.7562C312.318 39.8673 312.756 38.9121 312.756 38.6202C312.756 38.3284 312.876 38.0365 313.008 37.9436C313.154 37.8507 315.197 37.7579 317.559 37.7313C321.658 37.6783 321.857 37.7048 321.95 38.3151C322.136 39.5887 319.748 43.9934 318.023 45.5456C316.285 47.1111 315.794 47.4428 313.765 48.4378C311.708 49.4461 311.668 49.4461 306.919 49.4461H302.143L300.299 48.2919C298.229 47.005 296.703 44.9751 296.093 42.733C295.204 39.403 295.828 33.5257 297.512 29.3599C298.693 26.4411 299.662 25.0083 301.917 22.806C306.216 18.6003 312.398 17.0216 318.156 18.6667L318.129 18.7065ZM346.998 18.2952C353.035 19.675 356.073 23.7877 355.781 30.1957C355.529 35.7944 353.645 40.3582 350.076 44.1393C348.63 45.665 345.685 48.0796 345.274 48.0796C345.154 48.0796 344.478 48.3449 343.761 48.6633C341.837 49.539 337.393 50.335 335.323 50.1758C329.234 49.6849 325.957 47.5755 324.113 42.9187C322.388 38.5937 323.781 31.1111 327.231 26.0564C328.358 24.4113 330.494 22.1559 331.834 21.1741C335.761 18.3217 341.983 17.141 346.998 18.2819V18.2952ZM297.313 18.8126C297.313 19.0249 297.022 20.5373 296.677 22.1692C296.332 23.801 295.788 26.534 295.456 28.2587C295.124 29.9701 294.766 31.5887 294.66 31.8541C294.554 32.1061 294.143 33.937 293.758 35.9138C292.484 42.2819 291.834 45.3997 291.383 47.1509L290.945 48.8624L286.435 48.9552L281.924 49.0348L282.149 46.8325C282.149 46.8325 282.693 44.9088 283.065 42.9851C283.436 41.0614 284.033 38.0232 284.391 36.2189C284.75 34.4146 285.121 32.7297 285.227 32.4776C285.413 32.0398 286.09 28.8292 287.403 22.1559C287.721 20.5108 288.093 18.9983 288.212 18.7993C288.544 18.2554 297.34 18.2819 297.327 18.8259L297.313 18.8126ZM254.753 24.8358C253.227 25.8441 251.105 28.8292 251.105 29.9569C251.105 30.1692 252.843 30.2886 256.159 30.2886H261.214L261.373 29.4262C261.466 28.9486 261.493 28.2189 261.44 27.7811C261.386 27.3565 261.466 26.932 261.307 26.4279C261.095 25.7645 260.843 25.4461 260.312 24.942C259.489 24.1592 258.72 24.0929 257.619 24.0531C256.451 24.0133 255.589 24.2653 254.753 24.8226V24.8358ZM339.078 24.796C336.318 26.0962 334.872 28.325 333.585 33.3002C331.768 40.3051 333.055 43.3964 337.765 43.3831C341.864 43.3698 344.252 40.6368 345.857 34.1227C346.282 32.3715 346.64 30.3018 346.64 29.5191C346.64 27.6484 345.566 25.3267 344.517 24.9154C344.08 24.743 343.483 24.4776 343.178 24.3184C342.289 23.8541 340.71 24.0398 339.091 24.796H339.078Z" fill="#019FC4"/>
<path d="M59.1045 0L46.859 64H35.1708L19.9934 18.0829L11.2239 64H0L12.2454 0H24.0929L39.257 45.2139L47.8806 0H59.1045Z" fill="#019FC4"/>
<path d="M80.7429 0L68.4975 64H56.6501L68.8955 0H80.7429Z" fill="#019FC4"/>
<path d="M116.219 0C119.337 0 122.017 0.464345 124.272 1.4063C126.541 2.34826 128.252 3.59536 129.42 5.13433C130.587 6.6733 131.41 8.25207 131.9 9.83085C132.405 11.4096 132.643 13.0813 132.643 14.8325C132.643 16.8226 132.405 18.932 131.9 21.1609C131.396 23.3897 130.587 25.6982 129.446 28.0995C128.318 30.5008 126.925 32.6634 125.307 34.6003C123.688 36.5373 121.579 38.1161 119.032 39.3367C116.471 40.5705 113.658 41.1808 110.607 41.1808H95.8275L91.4892 64H79.6418L91.8872 0H116.219ZM110.063 30.1957C112.119 30.1957 113.897 29.7977 115.396 29.0149C116.896 28.2189 118.01 27.1708 118.753 25.8574C119.496 24.5439 120.027 23.2172 120.385 21.9038C120.716 20.5904 120.889 19.2504 120.889 17.9104C120.889 15.8541 120.226 14.1957 118.912 12.9088C117.599 11.6219 115.887 10.9718 113.778 10.9718H101.612L97.9768 30.1957H110.063Z" fill="#019FC4"/>
<path d="M166.939 10.9718L156.75 64H144.902L155.091 10.9718H137.539L139.675 0H185.818L183.682 10.9718H166.925H166.939Z" fill="#019FC4"/>
</g>
<defs>
<clipPath id="clip0_25_234">
<rect width="408.716" height="64" fill="white"/>
</clipPath>
</defs>
</svg>
