<svg width="251" height="32" viewBox="0 0 251 32" fill="none" xmlns="http://www.w3.org/2000/svg">
<path d="M168.915 4.95512L169.517 4.3531V1.15773L168.915 0.532546H149.893L149.349 1.15773V31.259L149.951 31.8726H168.915L169.517 31.259V27.9826L168.915 27.3806H153.493V21.1404C153.487 20.2684 153.19 19.4235 152.649 18.7397C152.108 18.0559 151.354 17.5725 150.507 17.3661V16.8799H168.22V15.4906H153.493V4.95512H168.915Z" fill="white"/>
<path d="M249.69 27.3806H231.271V26.8828C232.106 26.674 232.849 26.1956 233.385 25.5216C233.921 24.8476 234.219 24.0157 234.234 23.1548V1.15773L233.632 0.532546H230.634L230.032 1.13457V31.2359L230.634 31.8495H249.69L250.292 31.2359V27.9826L249.69 27.3806Z" fill="white"/>
<path d="M216.753 1.15773L216.151 0.532546H212.075L211.473 1.14615L200.915 31.2475L201.517 31.8495H204.828L205.43 31.2475L207.074 26.5586C207.26 26.1848 207.357 25.7727 207.356 25.3551C207.356 24.9374 207.258 24.5256 207.07 24.1524C206.882 23.7793 206.61 23.4551 206.275 23.2055C205.94 22.956 205.552 22.788 205.14 22.7149L205.302 22.2749H219.658L222.808 31.2359L223.41 31.8495H226.709L227.311 31.2359L216.753 1.15773ZM213.661 7.74528H214.564L219.265 21.1172H208.961L213.661 7.74528Z" fill="white"/>
<path d="M98.5702 -1.55275e-05C89.5166 -1.55275e-05 84.2489 7.02748 84.2489 15.9189C84.2489 24.8104 89.5745 32 98.5702 32C107.566 32 112.891 24.7988 112.891 15.9189C112.891 7.03906 107.67 -1.55275e-05 98.5702 -1.55275e-05ZM98.5702 27.5195C92.3763 27.5195 88.7757 22.3907 88.7757 15.9421C88.7757 9.49347 92.3763 4.36467 98.5702 4.36467C104.764 4.36467 108.376 9.49347 108.376 15.9421C108.376 22.3907 104.764 27.5195 98.5702 27.5195Z" fill="white"/>
<path d="M131.902 31.8032L140.631 1.70187H141.384V31.2011L141.986 31.8032H145.204L145.806 31.2011V1.14615L145.204 0.544123H140.122L139.52 1.13457L131.022 30.4255H130.628L122.119 1.13457L121.528 0.544123H116.457L115.855 1.14615V31.2011L116.457 31.8032H119.664L120.278 31.2011V1.70187H121.019L129.737 31.8032H131.902Z" fill="white"/>
<path d="M23.7337 15.9653L23.1317 16.5673C23.1317 23.0506 19.4617 27.5195 14.3213 27.5195C8.12735 27.5195 4.52677 22.3907 4.5152 15.9421C4.50362 9.49347 8.12735 4.36467 14.3213 4.36467C16.2194 4.33037 18.0813 4.88683 19.6494 5.95708C21.2174 7.02734 22.4141 8.55846 23.0738 10.3386H27.0796L27.6816 9.74818C26.8492 6.87284 25.0854 4.35537 22.6673 2.59099C20.2491 0.826618 17.3135 -0.0847459 14.3213 -1.55275e-05C5.26773 -1.55275e-05 0 7.02748 0 15.9189C0 24.8104 5.32562 32 14.3213 32C19.4269 32 22.3213 27.8784 23.4327 22.0087H23.8148V31.1896L24.4284 31.8032H27.1838L27.7858 31.1896V16.5673L27.1838 15.9653H23.7337Z" fill="white"/>
<path d="M51.369 4.95512L51.9826 4.3531V1.15773L51.369 0.532546H32.4168L31.7569 1.15773V31.259L32.3589 31.8726H51.369L51.9826 31.259V27.9826L51.369 27.3806H35.9595V21.1404C35.9508 20.2621 35.6469 19.4123 35.0967 18.7278C34.5465 18.0432 33.782 17.5636 32.9262 17.3661V16.8799H50.6744V15.4906H35.9595V4.95512H51.369Z" fill="white"/>
<path d="M77.5224 0.532546L76.9204 1.13457V30.6338H76.1795L62.1245 1.13457L61.5224 0.532546H56.4515L55.8495 1.13457V31.1896L56.4515 31.7916H59.6585L60.2605 31.1896V1.70187H61.0014L75.068 31.2011L75.6585 31.7916H80.741L81.343 31.1896V1.13457L80.741 0.532546H77.5224Z" fill="white"/>
<path d="M194.779 0.532546L194.177 1.13457V30.6338H193.436L179.369 1.13457L178.779 0.532546H173.696L173.094 1.13457V31.1896L173.696 31.7916H176.915L177.517 31.1896V1.70187H178.258L192.324 31.2011L192.915 31.7916H197.997L198.599 31.1896V1.13457L197.997 0.532546H194.779Z" fill="white"/>
<path d="M244.423 4.42256H245.013V1.79449H245.986V1.29666H243.439V1.79449H244.423V4.42256Z" fill="white"/>
<path d="M246.865 1.79449H246.981L247.595 4.42256H248.197L247.456 1.29666H246.263V4.42256H246.865V1.79449Z" fill="white"/>
<path d="M248.961 1.29666L248.22 4.42256H248.822L249.436 1.79449H249.551V4.42256H250.153V1.29666H248.961Z" fill="white"/>
</svg>
